<?xml version="1.0" standalone="no"?>
<!DOCTYPE svg PUBLIC "-//W3C//DTD SVG 20010904//EN"
 "http://www.w3.org/TR/2001/REC-SVG-20010904/DTD/svg10.dtd">
<svg version="1.0" xmlns="http://www.w3.org/2000/svg"
 width="1024.000000pt" height="1024.000000pt" viewBox="0 0 1024.000000 1024.000000"
 preserveAspectRatio="xMidYMid meet">

<g transform="translate(0.000000,1024.000000) scale(0.100000,-0.100000)"
fill="#915EFF" stroke="none">
<path d="M6540 8371 l-745 -6 -68 -32 c-85 -40 -168 -122 -205 -200 -23 -51
-27 -71 -27 -158 0 -89 3 -105 27 -151 75 -143 177 -215 331 -234 46 -6 418
-10 884 -10 443 0 808 -1 810 -4 2 -2 7 -38 10 -79 l6 -75 45 -6 c76 -10 177
-7 196 7 16 12 18 40 19 347 l2 335 -26 55 c-44 94 -110 146 -239 192 -71 26
-102 26 -1020 19z m-422 -281 c64 -58 75 -127 32 -198 -26 -42 -97 -77 -136
-68 -36 9 -110 84 -119 119 -11 41 3 93 32 128 32 38 55 48 113 48 37 1 52 -5
78 -29z m501 15 c101 -52 110 -174 19 -250 -28 -24 -39 -27 -85 -23 -62 5 -96
31 -125 95 -24 54 -13 103 36 156 30 33 39 37 80 37 26 0 60 -7 75 -15z m540
-12 c46 -35 66 -71 65 -118 -1 -60 -30 -106 -86 -133 -41 -20 -52 -22 -81 -13
-39 13 -91 64 -106 104 -7 18 -8 42 -2 68 23 100 133 149 210 92z"/>
<path d="M3770 8209 c-201 -3 -562 -7 -802 -8 -281 -1 -447 -5 -465 -12 -41
-15 -81 -57 -111 -114 l-25 -50 2 -645 c2 -502 5 -651 16 -675 7 -18 30 -50
52 -73 34 -35 46 -42 79 -42 50 0 81 22 105 74 17 39 19 77 19 657 l0 615 873
3 c479 1 889 6 911 10 46 11 92 52 106 97 20 61 -34 134 -119 163 -19 6 -86
10 -155 9 -67 -1 -285 -5 -486 -9z"/>
<path d="M4963 8189 c-39 -11 -113 -82 -136 -131 -36 -76 -12 -182 52 -227 48
-34 113 -61 152 -61 50 0 132 44 179 97 35 40 40 52 40 95 0 152 -146 268
-287 227z"/>
<path d="M2924 7800 c-32 -13 -72 -67 -80 -106 -10 -54 15 -94 90 -150 36 -26
66 -50 65 -53 0 -3 -30 -31 -66 -61 -93 -78 -111 -126 -73 -200 23 -45 45 -60
89 -60 25 0 56 25 195 163 91 89 166 170 166 180 0 23 -65 83 -125 113 -27 15
-87 62 -131 105 -82 80 -92 85 -130 69z"/>
<path d="M7165 7146 c-72 -31 -110 -113 -78 -168 42 -72 17 -68 531 -72 446
-3 464 -2 488 16 33 27 54 70 54 112 0 50 -8 63 -56 96 l-43 30 -433 0 c-337
-1 -440 -4 -463 -14z"/>
<path d="M3730 7134 c-42 -18 -79 -51 -91 -81 -4 -13 -9 -772 -9 -1688 l-1
-1666 21 -45 c12 -25 38 -56 58 -69 36 -25 38 -25 277 -25 215 0 243 2 270 18
50 31 94 81 105 120 6 23 10 252 10 625 l0 587 129 0 c70 0 148 3 172 6 l44 6
220 -248 c121 -137 258 -289 305 -339 47 -50 153 -165 235 -255 201 -220 431
-456 479 -492 l39 -28 264 0 c216 0 270 3 301 16 66 27 122 95 122 147 0 42
-111 174 -439 521 -58 61 -186 203 -285 316 -100 112 -216 242 -259 287 -43
46 -76 87 -73 92 3 4 34 14 68 20 214 40 400 142 566 309 50 52 104 115 119
140 15 26 37 60 51 76 42 52 103 187 127 280 59 233 34 514 -64 731 -46 100
-137 233 -210 305 -106 106 -298 231 -425 277 -23 8 -77 27 -121 41 l-80 26
-945 3 c-830 2 -949 1 -980 -13z m1770 -694 c79 -23 140 -61 206 -127 98 -98
132 -203 114 -348 -19 -148 -82 -242 -215 -322 -120 -71 -116 -71 -714 -76
l-533 -5 6 30 c3 17 6 219 6 449 l0 419 418 2 c549 4 632 1 712 -22z"/>
<path d="M7183 6668 c-29 -6 -52 -21 -77 -48 -42 -47 -47 -86 -16 -135 38 -61
41 -61 525 -64 497 -2 489 -3 532 74 35 61 30 90 -21 141 l-43 44 -429 -1
c-236 -1 -448 -5 -471 -11z"/>
<path d="M2133 6302 c-9 -5 -11 -95 -8 -362 2 -195 0 -404 -6 -464 -7 -75 -6
-113 1 -120 5 -5 38 -12 73 -13 l62 -4 141 138 c78 76 143 145 146 153 7 22
27 3 108 -104 38 -50 91 -114 118 -143 46 -50 50 -52 88 -47 65 9 100 23 124
49 29 31 23 46 -52 136 -80 95 -146 183 -160 214 -11 25 -10 29 11 44 13 9 57
50 98 91 l75 74 -4 111 c-3 102 -5 115 -31 153 -15 23 -46 54 -69 69 l-41 28
-331 3 c-182 1 -336 -1 -343 -6z m557 -237 c0 -21 -28 -75 -39 -75 -5 0 -45
-35 -88 -77 -122 -120 -190 -183 -197 -183 -3 0 -6 76 -6 170 l0 169 113 4
c61 1 136 4 165 5 41 2 52 -1 52 -13z"/>
<path d="M7564 6171 c-91 -55 -105 -173 -32 -257 53 -60 118 -80 171 -53 72
37 127 139 111 206 -24 98 -164 156 -250 104z"/>
<path d="M7575 5609 c-154 -23 -260 -89 -346 -217 -61 -92 -89 -179 -89 -281
0 -141 42 -249 139 -353 82 -89 174 -135 315 -158 125 -20 285 25 375 106 65
59 150 184 172 255 58 185 19 343 -121 493 -32 33 -82 75 -111 93 -88 53 -224
78 -334 62z m220 -230 c89 -42 139 -131 139 -249 1 -122 -49 -205 -167 -277
-56 -34 -69 -38 -127 -37 -76 0 -120 18 -184 75 -68 60 -90 115 -91 224 0 76
4 97 25 139 52 101 167 161 293 151 37 -3 88 -15 112 -26z"/>
<path d="M2470 5192 c-22 -12 -44 -35 -57 -62 -40 -77 -25 -149 41 -208 61
-54 151 -42 210 28 31 37 50 101 41 141 -8 36 -48 85 -86 104 -38 20 -107 19
-149 -3z"/>
<path d="M2112 4633 c-47 -23 -82 -72 -82 -115 0 -41 34 -97 70 -115 28 -14
386 -17 729 -6 l205 6 38 35 c51 46 59 89 25 141 -48 72 -43 71 -524 71 -376
0 -432 -2 -461 -17z"/>
<path d="M7630 4372 c-19 -9 -45 -32 -57 -50 l-22 -33 4 -730 3 -730 -954 2
c-861 1 -956 0 -979 -15 -35 -23 -65 -57 -77 -86 -22 -58 56 -167 129 -179 21
-3 482 -4 1024 -1 l986 5 41 28 c22 16 53 47 69 69 l28 41 3 792 2 792 -22 34
c-22 33 -96 79 -128 79 -8 0 -31 -8 -50 -18z"/>
<path d="M2137 4162 c-16 -2 -45 -20 -68 -43 -47 -47 -52 -93 -17 -145 42 -61
21 -59 513 -55 l450 3 38 24 c47 31 73 85 60 127 -4 17 -25 44 -46 61 l-39 31
-431 0 c-238 1 -445 -1 -460 -3z"/>
<path d="M2429 3687 c-67 -44 -66 -35 -65 -544 l1 -458 29 -58 c38 -74 119
-150 203 -190 65 -30 74 -31 243 -38 96 -3 468 -3 825 0 l650 6 50 24 c79 39
155 124 184 204 32 92 28 216 -11 299 -39 83 -105 149 -195 194 -71 35 -83 37
-212 46 -76 5 -436 6 -818 2 l-683 -6 0 234 0 234 -27 26 c-59 54 -118 63
-174 25z m1662 -778 c64 -22 109 -80 109 -140 0 -42 -43 -115 -80 -134 -106
-55 -232 59 -199 180 11 37 59 81 106 95 15 4 28 9 29 9 1 1 16 -4 35 -10z
m-971 -21 c99 -67 104 -183 11 -245 -91 -61 -201 9 -201 127 0 53 22 96 63
120 42 26 86 25 127 -2z m505 -4 c31 -20 65 -82 65 -119 0 -94 -102 -171 -176
-132 -113 59 -124 189 -20 253 46 28 86 27 131 -2z"/>
<path d="M7134 3658 c-37 -35 -53 -81 -54 -154 0 -80 -15 -102 -94 -138 -121
-55 -176 -117 -176 -196 0 -33 6 -48 31 -72 l30 -31 92 7 c51 4 135 11 187 15
134 10 143 17 154 126 3 28 12 104 21 170 26 206 17 253 -58 288 -55 26 -92
22 -133 -15z"/>
<path d="M4945 2927 c-115 -55 -165 -176 -116 -282 89 -197 404 -142 419 72
11 162 -158 279 -303 210z"/>
<path d="M3788 2068 c-3 -51 -3 -111 1 -133 5 -34 10 -40 34 -43 l27 -3 -6 73
-6 73 29 -35 c87 -108 114 -128 127 -94 3 9 6 65 6 124 0 98 -2 110 -19 120
-36 19 -41 12 -41 -55 l0 -64 -64 64 c-35 36 -68 65 -73 65 -6 0 -12 -42 -15
-92z"/>
<path d="M4976 2075 c-3 -44 -6 -101 -6 -127 l0 -48 63 0 c44 0 71 6 94 20 39
23 52 63 30 88 -11 12 -14 29 -10 57 7 55 -17 75 -100 84 l-64 7 -7 -81z m98
19 c22 -8 20 -31 -3 -43 -23 -13 -47 10 -37 34 6 16 16 18 40 9z m24 -110 c-5
-26 -34 -40 -52 -25 -22 19 -8 41 26 41 22 0 29 -4 26 -16z"/>
<path d="M6260 2029 l0 -129 53 0 c28 0 62 -3 75 -6 20 -6 22 -3 22 30 l0 36
-45 0 c-44 0 -45 0 -45 34 0 18 -3 60 -6 94 -6 53 -9 61 -30 65 l-24 4 0 -128z"/>
<path d="M2442 2142 l-83 -3 3 -117 3 -117 27 -3 c25 -3 27 0 30 40 3 42 4 43
43 48 32 4 40 9 40 25 0 16 -8 21 -40 25 -32 4 -41 9 -43 28 -3 20 0 22 51 22
48 0 55 3 61 22 3 13 2 25 -2 28 -4 3 -44 4 -90 2z"/>
<path d="M2575 2065 c-8 -90 -1 -155 18 -167 26 -17 37 -7 37 32 0 22 4 40 10
40 5 0 23 -18 41 -39 34 -43 51 -53 74 -45 24 9 18 30 -16 59 l-32 26 32 33
c35 36 38 56 14 93 -22 33 -70 53 -127 53 l-44 0 -7 -85z m106 25 c36 -20 13
-76 -28 -68 -22 4 -29 43 -13 64 15 17 16 17 41 4z"/>
<path d="M2875 2131 c-84 -50 -96 -160 -24 -212 57 -40 117 -22 167 51 29 43
28 78 -3 120 -45 61 -88 73 -140 41z m76 -61 c24 -13 26 -66 2 -92 -22 -24
-69 -24 -83 1 -33 63 20 123 81 91z"/>
<path d="M3086 2119 c-9 -44 -8 -209 2 -209 4 0 16 -3 27 -6 19 -5 20 -1 17
58 l-3 63 62 -62 c92 -93 99 -88 99 72 l0 103 -30 4 c-30 5 -30 4 -30 -43 0
-26 -4 -50 -8 -53 -5 -3 -30 19 -56 49 -26 30 -53 55 -60 55 -8 0 -16 -14 -20
-31z"/>
<path d="M3343 2143 c-7 -2 -13 -15 -13 -28 0 -19 6 -24 33 -27 l32 -3 3 -87
c2 -79 5 -88 22 -88 26 0 33 31 25 105 -6 58 -5 64 14 70 12 3 25 4 30 1 17
-11 41 6 41 29 0 19 -7 23 -52 29 -61 7 -117 7 -135 -1z"/>
<path d="M3570 2025 l0 -125 80 0 c79 0 80 0 80 25 0 23 -4 25 -40 25 -27 0
-43 5 -47 15 -8 22 1 28 47 28 35 0 40 2 40 23 0 22 -4 24 -44 24 -25 0 -48 5
-51 10 -12 20 17 40 56 40 37 0 39 2 39 30 l0 30 -80 0 -80 0 0 -125z"/>
<path d="M4060 2020 c0 -130 0 -130 23 -126 12 3 40 8 62 11 86 14 147 83 124
142 -23 60 -91 102 -166 103 l-43 0 0 -130z m124 39 c31 -25 33 -52 5 -80 -31
-31 -63 -22 -69 21 -12 79 12 100 64 59z"/>
<path d="M4410 2140 c0 -26 72 -229 85 -240 22 -19 41 2 55 61 7 27 15 51 20
54 4 2 12 -13 19 -34 11 -39 46 -91 60 -91 7 0 71 207 75 240 0 9 -9 16 -26
18 -29 3 -32 -2 -43 -75 -8 -54 -21 -63 -29 -20 -7 36 -41 97 -55 97 -5 0 -19
-29 -32 -65 -12 -36 -26 -65 -30 -65 -8 0 -39 93 -39 117 0 8 -12 13 -30 13
-16 0 -30 -5 -30 -10z"/>
<path d="M4772 2028 l3 -123 72 -5 c61 -4 73 -2 76 11 7 27 -6 37 -48 41 -33
2 -41 7 -43 26 -3 20 1 22 37 22 34 0 41 3 41 20 0 17 -7 20 -40 20 -36 0 -40
3 -40 24 0 23 5 25 48 28 39 2 48 7 50 24 3 25 -27 34 -110 34 l-49 0 3 -122z"/>
<path d="M5330 2145 c0 0 -2 -58 -3 -129 l-2 -128 59 7 c75 8 108 25 135 68
34 56 24 121 -24 153 -15 9 -57 20 -96 23 -38 4 -69 7 -69 6z m124 -86 c49
-38 21 -99 -46 -99 -28 0 -28 1 -28 60 0 56 1 60 24 60 13 0 35 -9 50 -21z"/>
<path d="M5588 2022 l3 -127 75 -1 74 -1 0 32 0 33 -46 -6 c-44 -5 -46 -4 -42
19 2 19 10 25 41 29 21 3 38 8 37 13 0 4 0 11 0 16 0 6 -19 14 -42 18 -28 6
-44 15 -46 25 -3 14 7 17 49 20 29 2 54 8 56 13 7 22 -16 32 -87 38 l-75 6 3
-127z"/>
<path d="M5780 2143 c0 -5 20 -60 44 -123 57 -150 63 -150 133 -10 61 124 64
140 25 140 -27 0 -30 -5 -52 -76 -23 -73 -40 -102 -40 -69 0 8 -13 45 -29 80
-25 55 -34 65 -55 65 -14 0 -26 -3 -26 -7z"/>
<path d="M6050 2048 c0 -57 -3 -113 -6 -125 -6 -22 -4 -23 75 -23 79 0 81 1
81 24 0 22 -6 26 -45 32 -35 5 -45 10 -45 25 0 16 8 19 45 19 37 0 45 3 45 19
0 15 -10 20 -45 25 -35 6 -45 11 -45 26 0 14 10 21 34 26 19 3 39 3 45 -1 7
-4 11 5 11 24 l0 31 -75 0 -75 0 0 -102z"/>
<path d="M6475 2119 c-19 -17 -40 -48 -46 -68 -10 -32 -8 -43 9 -78 41 -79
114 -97 176 -42 70 61 65 153 -10 199 -46 29 -87 26 -129 -11z m111 -65 c20
-29 11 -69 -18 -87 -23 -15 -65 5 -80 37 -27 61 62 106 98 50z"/>
<path d="M6704 2093 c-6 -49 0 -190 8 -198 2 -2 12 -5 23 -7 17 -2 21 4 25 42
5 42 7 45 46 55 54 13 74 31 74 65 0 41 -34 78 -78 85 -20 3 -49 8 -64 10 -26
4 -27 2 -34 -52z m104 -41 c-2 -9 -11 -18 -21 -20 -13 -3 -17 3 -17 28 0 28 2
30 21 20 11 -6 19 -19 17 -28z"/>
<path d="M6916 2068 c-3 -46 -2 -101 2 -123 6 -34 11 -40 35 -43 25 -3 26 -2
17 23 -5 14 -10 43 -10 63 l1 37 28 -32 c34 -41 49 -41 87 -2 l29 31 5 -59 c4
-51 8 -58 28 -61 22 -3 22 -2 22 122 0 125 0 126 -23 126 -16 0 -31 -12 -48
-37 -40 -61 -50 -62 -101 -10 -24 26 -49 47 -55 47 -6 0 -13 -35 -17 -82z"/>
<path d="M7216 2118 c-8 -40 -8 -113 0 -172 l7 -47 71 3 c64 3 71 5 74 25 3
20 -2 22 -45 25 -40 3 -48 6 -48 23 0 12 8 21 20 23 50 7 65 13 65 27 0 9 -16
16 -46 21 -60 9 -57 35 6 48 44 9 66 25 52 37 -4 4 -39 9 -78 12 l-72 6 -6
-31z"/>
<path d="M7420 2048 c0 -127 6 -150 34 -146 18 3 21 11 24 62 l3 59 60 -64
c57 -61 61 -63 75 -45 10 15 14 49 14 128 l0 108 -30 0 -30 0 0 -61 0 -60 -58
60 c-84 88 -92 85 -92 -41z"/>
<path d="M7666 2135 c-12 -33 -6 -43 34 -50 l39 -7 3 -81 c3 -75 5 -82 24 -85
25 -4 34 27 34 118 l0 58 32 -2 c34 -1 46 17 28 44 -7 11 -33 16 -98 18 -76 3
-90 1 -96 -13z"/>
</g>
</svg>
